<!DOCTYPE svg>
<svg xmlns="http://www.w3.org/2000/svg" viewBox="0 0 287 53" preserveAspectRatio="xMinYMin meet">
    <defs>
      <style type="text/css">
        @namespace "http://www.w3.org/2000/svg";

        .line {
          fill: none;
          stroke: #0C2026;
          stroke-width: 1;
        }

        .bold-line {
          stroke: #050D10;
          shape-rendering: crispEdges;
          stroke-width: 2;
        }

        .thin-line {
          stroke: #071417;
          shape-rendering: crispEdges
        }

        .filled {
          fill: #0C2026;
          stroke: none;
        }

        text.terminal {
          font-family: Verdana, Sans-serif;
          font-size: 12px;
          fill: #050D10;
          font-weight: bold;
        }

        text.nonterminal {
          font-family: Verdana, Sans-serif;
          font-size: 12px;
          fill: #061013;
          font-weight: normal;
        }

        text.regexp {
          font-family: Verdana, Sans-serif;
          font-size: 12px;
          fill: #071417;
          font-weight: normal;
        }

        rect,
        circle,
        polygon {
          fill: #0C2026;
          stroke: #0C2026;
        }

        rect.terminal {
          fill: #64B5CE;
          stroke: #0C2026;
          stroke-width: 1;
        }

        rect.nonterminal {
          fill: #9DD0E0;
          stroke: #0C2026;
          stroke-width: 1;
        }

        rect.text {
          fill: none;
          stroke: none;
        }

        polygon.regexp {
          fill: #BADEE9;
          stroke: #0C2026;
          stroke-width: 1;
        }
      </style>
    </defs>
    <polygon points="9 33 1 29 1 37" />
    <polygon points="17 33 9 29 9 37" />
    <rect x="31" y="19" width="28" height="32" rx="10" />
    <rect x="29" y="17" width="28" height="32" class="terminal" rx="10" />
    <text class="terminal" x="39" y="37">{</text><a xmlns:xlink="http://www.w3.org/1999/xlink" xlink:href="#expr"
      xlink:title="expr">
      <rect x="99" y="19" width="48" height="32" />
      <rect x="97" y="17" width="48" height="32" class="nonterminal" />
      <text class="nonterminal" x="107" y="37">expr</text>
    </a>
    <rect x="167" y="19" width="24" height="32" rx="10" />
    <rect x="165" y="17" width="24" height="32" class="terminal" rx="10" />
    <text class="terminal" x="175" y="37">;</text>
    <rect x="231" y="19" width="28" height="32" rx="10" />
    <rect x="229" y="17" width="28" height="32" class="terminal" rx="10" />
    <text class="terminal" x="239" y="37">}</text>
    <path xmlns:svg="http://www.w3.org/2000/svg" class="line"
      d="m17 33 h2 m0 0 h10 m28 0 h10 m20 0 h10 m48 0 h10 m0 0 h10 m24 0 h10 m-132 0 l20 0 m-1 0 q-9 0 -9 -10 l0 -12 q0 -10 10 -10 m112 32 l20 0 m-20 0 q10 0 10 -10 l0 -12 q0 -10 -10 -10 m-112 0 h10 m0 0 h102 m20 32 h10 m28 0 h10 m3 0 h-3" />
    <polygon points="277 33 285 29 285 37" />
    <polygon points="277 33 269 29 269 37" />
  </svg>