<!DOCTYPE svg>
<svg xmlns="http://www.w3.org/2000/svg" viewBox="0 0 609 103" preserveAspectRatio="xMinYMin meet">
         <defs>
            <style type="text/css">
    @namespace "http://www.w3.org/2000/svg";
    .line                 {fill: none; stroke: #0C2026; stroke-width: 1;}
    .bold-line            {stroke: #050D10; shape-rendering: crispEdges; stroke-width: 2;}
    .thin-line            {stroke: #071417; shape-rendering: crispEdges}
    .filled               {fill: #0C2026; stroke: none;}
    text.terminal         {font-family: Verdana, Sans-serif;
                            font-size: 12px;
                            fill: #050D10;
                            font-weight: bold;
                          }
    text.nonterminal      {font-family: Verdana, Sans-serif;
                            font-size: 12px;
                            fill: #061013;
                            font-weight: normal;
                          }
    text.regexp           {font-family: Verdana, Sans-serif;
                            font-size: 12px;
                            fill: #071417;
                            font-weight: normal;
                          }
    rect, circle, polygon {fill: #0C2026; stroke: #0C2026;}
    rect.terminal         {fill: #64B5CE; stroke: #0C2026; stroke-width: 1;}
    rect.nonterminal      {fill: #9DD0E0; stroke: #0C2026; stroke-width: 1;}
    rect.text             {fill: none; stroke: none;}
    polygon.regexp        {fill: #BADEE9; stroke: #0C2026; stroke-width: 1;}
  </style>
         </defs>
         <polygon points="9 51 1 47 1 55"/>
         <polygon points="17 51 9 47 9 55"/>
         <rect x="31" y="37" width="52" height="32" rx="10"/>
         <rect x="29" y="35" width="52" height="32" class="terminal" rx="10"/>
         <text class="terminal" x="39" y="55">class</text>
         <rect x="103" y="37" width="54" height="32" rx="10"/>
         <rect x="101" y="35" width="54" height="32" class="terminal" rx="10"/>
         <text class="terminal" x="111" y="55">ident</text>
         <rect x="197" y="69" width="24" height="32" rx="10"/>
         <rect x="195" y="67" width="24" height="32" class="terminal" rx="10"/>
         <text class="terminal" x="205" y="87">:</text>
         <rect x="241" y="69" width="54" height="32" rx="10"/>
         <rect x="239" y="67" width="54" height="32" class="terminal" rx="10"/>
         <text class="terminal" x="249" y="87">ident</text>
         <rect x="335" y="37" width="28" height="32" rx="10"/>
         <rect x="333" y="35" width="28" height="32" class="terminal" rx="10"/>
         <text class="terminal" x="343" y="55">{</text><a xmlns:xlink="http://www.w3.org/1999/xlink" xlink:href="#feature" xlink:title="feature">
            <rect x="403" y="3" width="66" height="32"/>
            <rect x="401" y="1" width="66" height="32" class="nonterminal"/>
            <text class="nonterminal" x="411" y="21">feature</text></a><rect x="509" y="37" width="28" height="32" rx="10"/>
         <rect x="507" y="35" width="28" height="32" class="terminal" rx="10"/>
         <text class="terminal" x="517" y="55">}</text>
         <rect x="557" y="37" width="24" height="32" rx="10"/>
         <rect x="555" y="35" width="24" height="32" class="terminal" rx="10"/>
         <text class="terminal" x="565" y="55">;</text>
         <svg:path xmlns:svg="http://www.w3.org/2000/svg" class="line" d="m17 51 h2 m0 0 h10 m52 0 h10 m0 0 h10 m54 0 h10 m20 0 h10 m0 0 h108 m-138 0 h20 m118 0 h20 m-158 0 q10 0 10 10 m138 0 q0 -10 10 -10 m-148 10 v12 m138 0 v-12 m-138 12 q0 10 10 10 m118 0 q10 0 10 -10 m-128 10 h10 m24 0 h10 m0 0 h10 m54 0 h10 m20 -32 h10 m28 0 h10 m20 0 h10 m0 0 h76 m-106 0 l20 0 m-1 0 q-9 0 -9 -10 l0 -14 q0 -10 10 -10 m86 34 l20 0 m-20 0 q10 0 10 -10 l0 -14 q0 -10 -10 -10 m-86 0 h10 m66 0 h10 m20 34 h10 m28 0 h10 m0 0 h10 m24 0 h10 m3 0 h-3"/>
         <polygon points="599 51 607 47 607 55"/>
         <polygon points="599 51 591 47 591 55"/>
</svg>
