<!DOCTYPE svg>
<svg xmlns="http://www.w3.org/2000/svg" viewBox="0 0 611 173" preserveAspectRatio="xMinYMin meet">
         <defs>
            <style type="text/css">
    @namespace "http://www.w3.org/2000/svg";
    .line                 {fill: none; stroke: #0C2026; stroke-width: 1;}
    .bold-line            {stroke: #050D10; shape-rendering: crispEdges; stroke-width: 2;}
    .thin-line            {stroke: #071417; shape-rendering: crispEdges}
    .filled               {fill: #0C2026; stroke: none;}
    text.terminal         {font-family: Verdana, Sans-serif;
                            font-size: 12px;
                            fill: #050D10;
                            font-weight: bold;
                          }
    text.nonterminal      {font-family: Verdana, Sans-serif;
                            font-size: 12px;
                            fill: #061013;
                            font-weight: normal;
                          }
    text.regexp           {font-family: Verdana, Sans-serif;
                            font-size: 12px;
                            fill: #071417;
                            font-weight: normal;
                          }
    rect, circle, polygon {fill: #0C2026; stroke: #0C2026;}
    rect.terminal         {fill: #64B5CE; stroke: #0C2026; stroke-width: 1;}
    rect.nonterminal      {fill: #9DD0E0; stroke: #0C2026; stroke-width: 1;}
    rect.text             {fill: none; stroke: none;}
    polygon.regexp        {fill: #BADEE9; stroke: #0C2026; stroke-width: 1;}
  </style>
         </defs>
         <polygon points="9 17 1 13 1 21"/>
         <polygon points="17 17 9 13 9 21"/>
         <rect x="51" y="3" width="38" height="32" rx="10"/>
         <rect x="49" y="1" width="38" height="32" class="terminal" rx="10"/>
         <text class="terminal" x="59" y="21">let</text>
         <rect x="109" y="3" width="54" height="32" rx="10"/>
         <rect x="107" y="1" width="54" height="32" class="terminal" rx="10"/>
         <text class="terminal" x="117" y="21">ident</text>
         <rect x="203" y="35" width="30" height="32" rx="10"/>
         <rect x="201" y="33" width="30" height="32" class="terminal" rx="10"/>
         <text class="terminal" x="211" y="53">=</text><a xmlns:xlink="http://www.w3.org/1999/xlink" xlink:href="#expr" xlink:title="expr">
            <rect x="253" y="35" width="48" height="32"/>
            <rect x="251" y="33" width="48" height="32" class="nonterminal"/>
            <text class="nonterminal" x="261" y="53">expr</text></a><rect x="51" y="123" width="54" height="32" rx="10"/>
         <rect x="49" y="121" width="54" height="32" class="terminal" rx="10"/>
         <text class="terminal" x="59" y="141">ident</text>
         <rect x="125" y="123" width="26" height="32" rx="10"/>
         <rect x="123" y="121" width="26" height="32" class="terminal" rx="10"/>
         <text class="terminal" x="133" y="141">(</text>
         <rect x="211" y="123" width="54" height="32" rx="10"/>
         <rect x="209" y="121" width="54" height="32" class="terminal" rx="10"/>
         <text class="terminal" x="219" y="141">ident</text>
         <rect x="211" y="79" width="24" height="32" rx="10"/>
         <rect x="209" y="77" width="24" height="32" class="terminal" rx="10"/>
         <text class="terminal" x="219" y="97">,</text>
         <rect x="325" y="123" width="26" height="32" rx="10"/>
         <rect x="323" y="121" width="26" height="32" class="terminal" rx="10"/>
         <text class="terminal" x="333" y="141">)</text><a xmlns:xlink="http://www.w3.org/1999/xlink" xlink:href="#block" xlink:title="block">
            <rect x="371" y="123" width="52" height="32"/>
            <rect x="369" y="121" width="52" height="32" class="nonterminal"/>
            <text class="nonterminal" x="379" y="141">block</text></a><rect x="463" y="3" width="24" height="32" rx="10"/>
         <rect x="461" y="1" width="24" height="32" class="terminal" rx="10"/>
         <text class="terminal" x="471" y="21">;</text>
         <svg:path xmlns:svg="http://www.w3.org/2000/svg" class="line" d="m17 17 h2 m20 0 h10 m38 0 h10 m0 0 h10 m54 0 h10 m20 0 h10 m0 0 h108 m-138 0 h20 m118 0 h20 m-158 0 q10 0 10 10 m138 0 q0 -10 10 -10 m-148 10 v12 m138 0 v-12 m-138 12 q0 10 10 10 m118 0 q10 0 10 -10 m-128 10 h10 m30 0 h10 m0 0 h10 m48 0 h10 m20 -32 h102 m-412 0 h20 m392 0 h20 m-432 0 q10 0 10 10 m412 0 q0 -10 10 -10 m-422 10 v100 m412 0 v-100 m-412 100 q0 10 10 10 m392 0 q10 0 10 -10 m-402 10 h10 m54 0 h10 m0 0 h10 m26 0 h10 m40 0 h10 m54 0 h10 m-94 0 l20 0 m-1 0 q-9 0 -9 -10 l0 -24 q0 -10 10 -10 m74 44 l20 0 m-20 0 q10 0 10 -10 l0 -24 q0 -10 -10 -10 m-74 0 h10 m24 0 h10 m0 0 h30 m-114 44 h20 m114 0 h20 m-154 0 q10 0 10 10 m134 0 q0 -10 10 -10 m-144 10 v14 m134 0 v-14 m-134 14 q0 10 10 10 m114 0 q10 0 10 -10 m-124 10 h10 m0 0 h104 m20 -34 h10 m26 0 h10 m0 0 h10 m52 0 h10 m20 -120 h10 m24 0 h10 m3 0 h-3"/>
         <polygon points="505 17 513 13 513 21"/>
         <polygon points="505 17 497 13 497 21"/></svg>